<svg width="48" height="48" viewBox="0 0 48 48" fill="none" xmlns="http://www.w3.org/2000/svg">
<path d="M25.6819 19.796L28.4849 8.58303L34.0899 5.78003M25.6819 19.796L34.0899 16.992L39.6959 11.386L34.0899 5.78003M25.6819 19.796L34.0899 5.78003" stroke="#0474E0" stroke-linecap="round" stroke-linejoin="round"/>
<path d="M39.6969 11.386L42.4999 22.6M42.4999 22.6V31.009L39.6969 39.418L34.0909 42.221L25.6809 36.615M42.4999 22.6L34.0909 16.992L31.2879 28.205M42.4999 22.6L31.2879 28.205M25.6809 36.615V19.796L31.2879 28.205M25.6809 36.615L31.2879 28.205" stroke="#0474E0" stroke-linecap="round" stroke-linejoin="round"/>
<path d="M25.6819 36.6141H34.0909L42.4999 31.0081" stroke="#0474E0" stroke-linecap="round" stroke-linejoin="round"/>
<path d="M36.894 25.401L34.09 36.614L31.287 28.204M22.318 19.796L19.515 8.58303L13.91 5.78003M22.318 19.796L13.91 16.992L8.30396 11.386L13.91 5.78003M22.318 19.796L13.91 5.78003" stroke="#0474E0" stroke-linecap="round" stroke-linejoin="round"/>
<path d="M8.303 11.386L5.5 22.6M5.5 22.6V31.009L8.303 39.418L13.909 42.221L22.319 36.615M5.5 22.6L13.909 16.992L16.712 28.205M5.5 22.6L16.712 28.205M22.319 36.615V19.796L16.712 28.205M22.319 36.615L16.712 28.205" stroke="#0474E0" stroke-linecap="round" stroke-linejoin="round"/>
<path d="M22.318 36.6141H13.91L5.5 31.0081" stroke="#0474E0" stroke-linecap="round" stroke-linejoin="round"/>
<path d="M11.106 25.4009L13.909 36.6139L16.712 28.2039" stroke="#0474E0" stroke-linecap="round" stroke-linejoin="round"/>
</svg>
