<svg width="41" height="40" viewBox="0 0 41 40" fill="none" xmlns="http://www.w3.org/2000/svg">
<rect width="41" height="40" rx="20" fill="#EBE0F5"/>
<g clip-path="url(#clip0_308_10559)">
<path fill-rule="evenodd" clip-rule="evenodd" d="M13.1926 10.0424C11.7661 10.0424 10.7106 11.2909 10.7578 12.6449C10.8032 13.9458 10.7443 15.6305 10.3201 17.0044C9.8947 18.3824 9.17521 19.2553 8 19.3674V20.6326C9.17521 20.7447 9.8947 21.6176 10.3201 22.9956C10.7443 24.3695 10.8032 26.0542 10.7578 27.3551C10.7106 28.7089 11.7661 29.9576 13.1928 29.9576H27.8093C29.2358 29.9576 30.2911 28.7091 30.2439 27.3551C30.1985 26.0542 30.2574 24.3695 30.6816 22.9956C31.1072 21.6176 31.8248 20.7447 33 20.6326V19.3674C31.8248 19.2553 31.1072 18.3824 30.6816 17.0044C30.2574 15.6307 30.1985 13.9458 30.2439 12.6449C30.2911 11.2911 29.2358 10.0424 27.8093 10.0424H13.1924H13.1926ZM24.9492 22.3015C24.9492 24.1659 23.5585 25.2966 21.2506 25.2966H17.322C17.2097 25.2966 17.1019 25.252 17.0224 25.1725C16.9429 25.093 16.8983 24.9853 16.8983 24.8729V15.1271C16.8983 15.0147 16.9429 14.907 17.0224 14.8275C17.1019 14.748 17.2097 14.7034 17.322 14.7034H21.2282C23.1525 14.7034 24.4155 15.7458 24.4155 17.3462C24.4155 18.4695 23.5659 19.4752 22.4835 19.6513V19.71C23.957 19.8716 24.9492 20.8919 24.9492 22.3015ZM20.8222 16.0466H18.5822V19.2106H20.4689C21.9273 19.2106 22.7316 18.6233 22.7316 17.5735C22.7316 16.5898 22.04 16.0466 20.8222 16.0466ZM18.5822 20.4661V23.953H20.9047C22.4231 23.953 23.2275 23.3436 23.2275 22.1985C23.2275 21.0532 22.4006 20.4659 20.807 20.4659L18.5822 20.4661Z" fill="black"/>
</g>
<defs>
<clipPath id="clip0_308_10559">
<rect width="25" height="20" fill="white" transform="translate(8 10)"/>
</clipPath>
</defs>
</svg>
