<svg width="399" height="603" viewBox="0 0 399 603" fill="none" xmlns="http://www.w3.org/2000/svg">
<circle cx="116.438" cy="282.438" r="282.438" transform="rotate(180 116.438 282.438)" fill="url(#paint0_linear_81_57)"/>
<path d="M-5.00001 603C16.2142 603 37.1009 597.788 55.8102 587.827C74.5194 577.865 90.4736 563.461 102.26 545.891C114.046 528.32 121.299 508.125 123.379 487.095C125.458 466.065 122.299 444.849 114.18 425.325C106.062 405.802 93.2355 388.574 76.8367 375.168C60.4379 361.762 40.9732 352.592 20.1666 348.469C-0.639915 344.346 -22.146 345.399 -42.4467 351.533C-62.7474 357.667 -81.2161 368.694 -96.2168 383.637L-71.8272 407.932C-60.8374 396.985 -47.3069 388.906 -32.4342 384.412C-17.5615 379.918 -1.80572 379.147 13.4376 382.167C28.6809 385.188 42.9411 391.906 54.9552 401.728C66.9692 411.549 76.3663 424.17 82.3139 438.474C88.2616 452.777 90.5762 468.32 89.0528 483.727C87.5295 499.135 82.2151 513.93 73.5805 526.802C64.9458 539.675 53.2575 550.227 39.5507 557.525C25.844 564.823 10.5419 568.642 -5.00001 568.642L-5.00001 603Z" fill="#CBE5FF"/>
<defs>
<linearGradient id="paint0_linear_81_57" x1="296.301" y1="408.328" x2="-22.0122" y2="164.375" gradientUnits="userSpaceOnUse">
<stop stop-color="#FFFFF2"/>
<stop offset="1" stop-color="#FFCACA" stop-opacity="0"/>
</linearGradient>
</defs>
</svg>
