<svg width="16" height="16" viewBox="0 0 16 16" fill="none" xmlns="http://www.w3.org/2000/svg">
<path d="M8.86675 11.5167C8.73342 11.3833 8.66942 11.2222 8.67475 11.0333C8.68008 10.8444 8.74964 10.6833 8.88342 10.55L10.7668 8.66666H3.33342C3.14453 8.66666 2.98608 8.60266 2.85808 8.47466C2.73008 8.34666 2.66631 8.18844 2.66675 7.99999C2.66675 7.8111 2.73075 7.65266 2.85875 7.52466C2.98675 7.39666 3.14497 7.33288 3.33342 7.33333H10.7668L8.86675 5.43332C8.73342 5.29999 8.66675 5.14155 8.66675 4.95799C8.66675 4.77444 8.73342 4.61621 8.86675 4.48333C9.00008 4.34999 9.15853 4.28333 9.34208 4.28333C9.52564 4.28333 9.68386 4.34999 9.81675 4.48333L12.8668 7.53333C12.9334 7.59999 12.9808 7.67221 13.0088 7.74999C13.0368 7.82777 13.0505 7.9111 13.0501 7.99999C13.0501 8.08888 13.0361 8.17221 13.0081 8.24999C12.9801 8.32777 12.933 8.39999 12.8668 8.46666L9.80008 11.5333C9.67786 11.6555 9.52519 11.7167 9.34208 11.7167C9.15897 11.7167 9.00053 11.65 8.86675 11.5167Z" fill="white"/>
</svg>
