<svg width="126" height="32" viewBox="0 0 126 32" fill="none" xmlns="http://www.w3.org/2000/svg">
<path d="M36.7992 16.1201H35.3338L35.2263 15.6771L39.3929 10.3366H39.8813V13.7082H42.5629C42.6055 13.9079 42.6349 14.1101 42.6509 14.3137C42.6509 14.4909 42.6753 14.6779 42.6753 14.8699C42.6753 15.0618 42.6753 15.2784 42.6509 15.4753C42.6354 15.6919 42.6061 15.9073 42.5629 16.1201H39.9009V20.6731C39.8922 21.0488 39.9299 21.4241 40.0132 21.7904C40.0671 22.0359 40.1776 22.2652 40.3356 22.4598C40.4705 22.6217 40.6511 22.7384 40.8533 22.7945C41.0925 22.8572 41.339 22.887 41.586 22.8831C41.8054 22.8851 42.0245 22.867 42.2406 22.829L42.8072 22.7305C42.9107 23.0157 42.9844 23.311 43.027 23.6116C43.0688 23.8804 43.0916 24.1518 43.0954 24.4238C43.0954 24.5911 43.0954 24.7289 43.0954 24.8372C43.0954 24.9455 43.0856 25.0538 43.0661 25.1621C42.3762 25.3263 41.6697 25.4088 40.9608 25.4082C39.6127 25.4082 38.5853 25.0915 37.8786 24.4582C37.1411 23.8085 36.7992 22.7748 36.7992 21.3474V16.1201Z" fill="#F04C55"/>
<path d="M44.5313 13.7082C44.7559 13.6639 44.966 13.6344 45.1663 13.6098C45.3835 13.585 45.6021 13.5735 45.8208 13.5753C46.0397 13.5752 46.2584 13.59 46.4753 13.6196C46.6854 13.6492 46.8954 13.6885 47.1054 13.7328C47.1597 13.8355 47.2007 13.9446 47.2275 14.0577C47.2617 14.1955 47.2959 14.3481 47.3252 14.5007C47.3545 14.6533 47.379 14.8157 47.4034 14.9929C47.4278 15.1701 47.4425 15.2784 47.4571 15.3818C47.793 14.911 48.1963 14.493 48.6538 14.1414C49.1675 13.7644 49.7919 13.572 50.4269 13.595C50.5735 13.595 50.7444 13.595 50.9154 13.6196C51.0573 13.6255 51.1982 13.647 51.3355 13.6836C51.3656 13.8464 51.3868 14.0107 51.399 14.1758C51.399 14.3678 51.4234 14.5696 51.4234 14.7763C51.4234 14.9831 51.4234 15.3079 51.3892 15.6033C51.3701 15.8882 51.3293 16.1713 51.2671 16.4499C51.088 16.4188 50.9066 16.404 50.7249 16.4056H50.3586C50.0769 16.4101 49.796 16.4364 49.5184 16.4843C49.1925 16.5453 48.8869 16.6874 48.6294 16.8978C48.3207 17.1639 48.0809 17.5018 47.9309 17.8822C47.7249 18.4848 47.6321 19.1208 47.6574 19.7576V25.2753C47.3926 25.3234 47.125 25.3547 46.8563 25.3688C46.5925 25.3688 46.3337 25.3688 46.0846 25.3688C45.8354 25.3688 45.5961 25.3688 45.3177 25.3688C45.0458 25.3533 44.7751 25.3221 44.5068 25.2753L44.5313 13.7082Z" fill="#F04C55"/>
<path d="M52.8009 13.7082C53.8421 13.5311 54.9054 13.5311 55.9466 13.7082V19.8314C55.9358 20.3375 55.985 20.8432 56.0931 21.3376C56.162 21.6807 56.3129 22.0017 56.5328 22.2728C56.7314 22.5016 56.9881 22.6717 57.2752 22.765C57.6137 22.8695 57.9665 22.9193 58.3205 22.9127C58.7829 22.9215 59.2445 22.8686 59.6931 22.7552V13.7082C60.2047 13.6213 60.7226 13.5768 61.2415 13.5753C61.7685 13.576 62.2946 13.6204 62.8143 13.7082V24.8077C62.2024 25.0141 61.5774 25.1785 60.9435 25.2999C60.1392 25.4591 59.321 25.5366 58.5012 25.5313C57.7747 25.5334 57.0492 25.4741 56.3325 25.3541C55.6773 25.2533 55.0549 24.9987 54.5154 24.6108C53.9474 24.1642 53.5129 23.568 53.2601 22.8881C52.9081 21.945 52.7422 20.9418 52.7716 19.9348L52.8009 13.7082Z" fill="#F04C55"/>
<path d="M67.733 20.4516C67.7279 20.83 67.8094 21.2044 67.9712 21.5459C68.133 21.8874 68.3707 22.1866 68.666 22.4205C69.3237 22.8519 70.0996 23.0638 70.8836 23.0259C71.3999 23.0246 71.915 22.9752 72.4222 22.8782C72.9324 22.7888 73.4329 22.6504 73.9169 22.4648C74.0957 22.8058 74.2365 23.1656 74.337 23.5378C74.46 23.9737 74.5273 24.4236 74.5372 24.8766C73.2871 25.342 71.962 25.569 70.6296 25.546C69.7051 25.5663 68.7847 25.4162 67.9138 25.103C67.2147 24.8528 66.5846 24.439 66.0751 23.8956C65.5656 23.3523 65.1913 22.6949 64.983 21.9775C64.5141 20.4194 64.5141 18.7561 64.983 17.198C65.1999 16.4854 65.5571 15.8242 66.0332 15.2538C66.5102 14.698 67.0998 14.2516 67.7623 13.9445C68.5199 13.6058 69.3417 13.4378 70.1704 13.4523C70.9005 13.4397 71.6248 13.584 72.2952 13.8756C72.8979 14.1464 73.4372 14.5422 73.8778 15.0372C74.3216 15.546 74.6544 16.1429 74.8547 16.7895C75.0835 17.4932 75.1973 18.2296 75.1918 18.97C75.1918 19.2506 75.1918 19.5311 75.1576 19.8068C75.1234 20.0824 75.1087 20.299 75.0794 20.4614L67.733 20.4516ZM72.2317 18.2415C72.233 17.6159 72.0266 17.0078 71.6456 16.5139C71.4605 16.294 71.2276 16.1202 70.9649 16.0058C70.7023 15.8914 70.4171 15.8396 70.1313 15.8543C69.8225 15.8315 69.5123 15.8755 69.2217 15.9833C68.9311 16.0911 68.6667 16.2603 68.4462 16.4794C68.0289 16.9735 67.7866 17.5934 67.7574 18.2415H72.2317Z" fill="#F04C55"/>
<path d="M77.2434 13.7082C77.4486 13.6639 77.6586 13.6344 77.8637 13.6098C78.0908 13.5849 78.3192 13.5734 78.5476 13.5753C78.7711 13.573 78.9946 13.5845 79.2168 13.6098C79.4073 13.6344 79.6075 13.6639 79.8127 13.7082C79.8659 13.8113 79.9069 13.9203 79.9348 14.0331C79.9739 14.1758 80.0032 14.3235 80.0325 14.481C80.0618 14.6385 80.0911 14.7911 80.1107 14.9388C80.1302 15.0864 80.1546 15.2144 80.1693 15.3178C80.2988 15.078 80.4544 14.8535 80.6333 14.6484C80.8342 14.417 81.066 14.2149 81.322 14.0479C81.5986 13.8611 81.8994 13.7137 82.2159 13.6098C82.5789 13.4928 82.9583 13.4363 83.3394 13.4424C85.1222 13.4424 86.2701 14.1266 86.7586 15.495C87.0666 14.9299 87.4934 14.4394 88.009 14.0577C88.6064 13.6294 89.328 13.413 90.0605 13.4424C91.3631 13.4424 92.3188 13.8034 92.9278 14.5253C93.5432 15.2489 93.8461 16.376 93.8461 17.9068V25.2556C92.8049 25.4328 91.7416 25.4328 90.7004 25.2556V18.7338C90.7315 18.1026 90.6299 17.4719 90.4024 16.883C90.2908 16.6679 90.1173 16.4917 89.9047 16.3775C89.692 16.2633 89.4501 16.2165 89.2106 16.2431C88.9589 16.2438 88.7088 16.282 88.4682 16.3564C88.2152 16.4345 87.9865 16.5769 87.8039 16.7698C87.5786 17.0104 87.4115 17.3001 87.3154 17.6164C87.1749 18.0752 87.1105 18.5541 87.1249 19.034V25.2556C86.0837 25.4328 85.0204 25.4328 83.9792 25.2556V18.7338C84.0103 18.1026 83.9088 17.4719 83.6813 16.883C83.5684 16.6644 83.3918 16.4859 83.1752 16.3715C82.9587 16.2571 82.7125 16.2123 82.4699 16.2431C82.2151 16.2449 81.9619 16.2831 81.7177 16.3564C81.4575 16.435 81.2241 16.585 81.0436 16.7895C80.8161 17.0511 80.6492 17.3605 80.5552 17.6952C80.4247 18.1894 80.3655 18.7 80.3793 19.2112V25.2655C79.3381 25.4426 78.2748 25.4426 77.2336 25.2655L77.2434 13.7082Z" fill="#F04C55"/>
<path d="M101.994 17.6607C102.005 17.3603 101.945 17.0616 101.818 16.7895C101.706 16.5736 101.537 16.3931 101.329 16.2678C101.095 16.1315 100.836 16.0444 100.567 16.0118C100.232 15.9644 99.8944 15.9414 99.5562 15.9429C98.6852 15.9648 97.8238 16.1311 97.0064 16.4351C96.8157 16.0875 96.6602 15.7214 96.5424 15.3424C96.4315 14.942 96.3789 14.5275 96.3861 14.1119C97.0225 13.893 97.6761 13.7283 98.3399 13.6196C98.9406 13.5197 99.5482 13.467 100.157 13.4621C101.451 13.3846 102.73 13.7815 103.757 14.5795C104.61 15.3112 105.037 16.4958 105.037 18.1333V24.8323C104.418 25.021 103.791 25.1771 103.156 25.2999C102.33 25.4554 101.491 25.5296 100.65 25.5214C99.9551 25.5279 99.261 25.4619 98.5793 25.3245C98.0013 25.21 97.4517 24.9808 96.9625 24.6502C96.5156 24.347 96.1552 23.9313 95.9172 23.4443C95.6609 22.878 95.5372 22.2599 95.5557 21.6378C95.5338 21.0075 95.6915 20.3841 96.01 19.8412C96.3172 19.3696 96.7327 18.9796 97.2214 18.7042C97.719 18.4076 98.262 18.1963 98.8284 18.0791C99.411 17.952 100.005 17.8877 100.601 17.8871C101.031 17.8871 101.5 17.9118 102.018 17.9561L101.994 17.6607ZM101.994 19.9643C101.818 19.9348 101.627 19.9052 101.417 19.8855C101.234 19.8631 101.05 19.8516 100.865 19.8511C100.268 19.8199 99.6729 19.9543 99.1459 20.2399C98.9368 20.3733 98.7677 20.5615 98.6566 20.7843C98.5456 21.0072 98.4969 21.2563 98.5158 21.5049C98.491 21.79 98.5585 22.0754 98.7082 22.3185C98.8579 22.5617 99.0817 22.7494 99.3462 22.8536C99.5791 22.9528 99.8266 23.0127 100.079 23.0308C100.338 23.0554 100.567 23.0653 100.753 23.0653C100.975 23.0668 101.198 23.0487 101.417 23.0111L101.994 22.9127V19.9643Z" fill="#F04C55"/>
<path d="M107.401 13.7082C107.625 13.6639 107.835 13.6344 108.036 13.6098C108.251 13.585 108.468 13.5735 108.685 13.5753C108.904 13.5751 109.123 13.5899 109.34 13.6196C109.555 13.6492 109.765 13.6885 109.97 13.7328C110.028 13.8335 110.07 13.9433 110.092 14.0577C110.131 14.1955 110.165 14.3481 110.195 14.5007C110.224 14.6533 110.248 14.8157 110.273 14.9929C110.297 15.1701 110.312 15.2784 110.326 15.3818C110.661 14.9099 111.065 14.4917 111.523 14.1414C112.037 13.7644 112.661 13.572 113.296 13.595C113.443 13.595 113.614 13.595 113.785 13.6196C113.928 13.6257 114.071 13.6471 114.21 13.6836C114.24 13.8464 114.261 14.0107 114.273 14.1758C114.273 14.3678 114.298 14.5696 114.298 14.7763C114.298 14.9831 114.298 15.3079 114.263 15.6033C114.242 15.888 114.201 16.1708 114.141 16.4499C113.962 16.4188 113.781 16.404 113.599 16.4056H113.233C112.95 16.4102 112.667 16.4366 112.388 16.4843C112.063 16.5447 111.759 16.6869 111.504 16.8978C111.195 17.1639 110.955 17.5018 110.805 17.8822C110.595 18.4838 110.5 19.1203 110.527 19.7576V25.2753C110.264 25.3237 109.998 25.355 109.731 25.3688C109.467 25.3688 109.208 25.3688 108.954 25.3688C108.7 25.3688 108.465 25.3688 108.192 25.3688C107.92 25.3533 107.649 25.3221 107.381 25.2753L107.401 13.7082Z" fill="#F04C55"/>
<path d="M115.665 8.93374C116.178 8.84021 116.698 8.79408 117.219 8.79592C117.746 8.79472 118.272 8.84084 118.791 8.93374V25.2556C118.272 25.3444 117.746 25.3889 117.219 25.3885C116.698 25.3895 116.178 25.3451 115.665 25.2556V8.93374ZM119.236 19.1964L122.074 13.7033C122.653 13.6145 123.237 13.57 123.823 13.5704C124.372 13.5694 124.921 13.6139 125.464 13.7033L122.533 19.0439L125.952 25.2507C125.373 25.3373 124.789 25.3817 124.204 25.3836C123.654 25.381 123.105 25.3366 122.562 25.2507L119.236 19.1964Z" fill="#F04C55"/>
<path d="M15.605 15.7509L11.9611 18.2858C11.8683 18.3449 11.7852 18.4138 11.6924 18.4729C11.2923 18.7495 10.8343 18.9297 10.354 18.9996C10.1802 19.033 10.0035 19.0495 9.82651 19.0488C8.96558 19.0512 8.13795 18.7137 7.521 18.1086L9.29898 19.92L9.43086 20.0529L13.3092 23.9611C13.5229 24.1776 13.7772 24.3492 14.0573 24.4658C14.3373 24.5824 14.6376 24.6417 14.9407 24.6403C15.5338 24.6389 16.1038 24.4081 16.533 23.9955L39.2414 1.12721C39.353 1.00106 39.4155 0.83844 39.4173 0.669448C39.4166 0.580893 39.3987 0.493331 39.3644 0.411763C39.3302 0.330195 39.2804 0.256219 39.2178 0.194058C39.1552 0.131896 39.0811 0.0827679 38.9996 0.0494774C38.9182 0.0161869 38.8311 -0.000613578 38.7432 3.51726e-05C38.6123 -0.00124718 38.4836 0.0345696 38.372 0.1034L15.605 15.7509Z" fill="url(#paint0_linear_37_417)"/>
<path d="M11.6924 18.4778C11.7852 18.4187 11.8682 18.3498 11.961 18.2908L15.6049 15.7509C15.4074 15.8742 15.1858 15.9531 14.9553 15.9823H14.8136C14.6296 15.9832 14.4471 15.9481 14.2763 15.8789C14.2324 15.8543 14.1835 15.8445 14.1493 15.8198L14.0126 15.7509L13.1578 15.3522L7.94103 12.9256L0.951209 9.64746C0.869694 9.61055 0.781669 9.59047 0.692327 9.58839C0.60321 9.58773 0.514858 9.60501 0.432458 9.63922C0.350058 9.67343 0.275268 9.72388 0.212479 9.78761C0.14969 9.85134 0.100166 9.92707 0.0668136 10.0103C0.0334612 10.0936 0.0169523 10.1828 0.0182557 10.2726C0.0151129 10.3569 0.0290874 10.441 0.0593237 10.5197C0.0895599 10.5984 0.135422 10.6701 0.1941 10.7303L0.228292 10.7746L7.47211 18.0643C7.78024 18.3775 8.14705 18.6257 8.55123 18.7947C8.95541 18.9637 9.38889 19.0501 9.82648 19.0488C10.0035 19.0495 10.1801 19.033 10.354 18.9996C10.8339 18.9312 11.2918 18.7527 11.6924 18.4778Z" fill="url(#paint1_linear_37_417)"/>
<path d="M28.4515 13.8313L27.9386 14.3235C28.3145 15.5562 28.5055 16.8387 28.5052 18.1283C28.5387 19.8675 28.2277 21.5958 27.5904 23.2124C26.953 24.829 26.0022 26.3012 24.7935 27.5431C23.5849 28.7849 22.1425 29.7714 20.551 30.4449C18.9594 31.1183 17.2506 31.4652 15.5244 31.4652C13.7983 31.4652 12.0894 31.1183 10.4979 30.4449C8.90633 29.7714 7.46402 28.7849 6.25533 27.5431C5.04664 26.3012 4.09583 24.829 3.45853 23.2124C2.82122 21.5958 2.51021 19.8675 2.54369 18.1283C2.54264 17.1626 2.6508 16.1998 2.86607 15.2587L2.33365 14.7222C1.84896 16.609 1.7685 18.5781 2.09764 20.4987C2.42677 22.4192 3.15795 24.2471 4.24254 25.8608C5.32713 27.4745 6.74026 28.8369 8.38795 29.8575C10.0356 30.8782 11.8801 31.5336 13.7986 31.7801C15.7172 32.0267 17.6658 31.8587 19.515 31.2875C21.3641 30.7162 23.0714 29.7548 24.5231 28.467C25.9749 27.1793 27.1379 25.5948 27.9349 23.819C28.7318 22.0431 29.1443 20.1167 29.1451 18.1677C29.1459 16.7006 28.9117 15.2429 28.4515 13.851M15.522 5.06986C18.6875 5.06996 21.7423 6.24382 24.1042 8.3677L24.6513 7.99362C23.247 6.71191 21.5924 5.74017 19.7935 5.14073C17.9946 4.5413 16.0913 4.32742 14.2056 4.5128C12.3199 4.69819 10.4934 5.27876 8.84348 6.21725C7.19352 7.15574 5.75646 8.43143 4.62452 9.96248L5.22532 10.243C6.4286 8.63805 7.98446 7.33573 9.77091 6.4382C11.5574 5.54067 13.5258 5.07231 15.522 5.06986Z" fill="#F04C55"/>
<defs>
<linearGradient id="paint0_linear_37_417" x1="5.53493" y1="12.1686" x2="37.48" y2="12.1686" gradientUnits="userSpaceOnUse">
<stop stop-color="#F04C55"/>
<stop offset="1" stop-color="#F04C55"/>
</linearGradient>
<linearGradient id="paint1_linear_37_417" x1="1.04787" y1="14.3528" x2="16.6345" y2="14.3528" gradientUnits="userSpaceOnUse">
<stop stop-color="#F04C55"/>
<stop offset="1" stop-color="#CC3241"/>
</linearGradient>
</defs>
</svg>
