<svg width="40" height="40" viewBox="0 0 40 40" fill="none" xmlns="http://www.w3.org/2000/svg">
<rect width="40" height="40" rx="20" fill="#CFF5FC"/>
<path d="M20 29C18.75 29 17.5793 28.7627 16.488 28.288C15.396 27.8127 14.446 27.1707 13.638 26.362C12.8293 25.554 12.1873 24.604 11.712 23.512C11.2373 22.4207 11 21.25 11 20C11 18.75 11.2373 17.579 11.712 16.487C12.1873 15.3957 12.8293 14.4457 13.638 13.637C14.446 12.829 15.396 12.1873 16.488 11.712C17.5793 11.2373 18.75 11 20 11C21.3667 11 22.6627 11.2917 23.888 11.875C25.1127 12.4583 26.15 13.2833 27 14.35V12H29V18H23V16H25.75C25.0667 15.0667 24.225 14.3333 23.225 13.8C22.225 13.2667 21.15 13 20 13C18.05 13 16.396 13.679 15.038 15.037C13.6793 16.3957 13 18.05 13 20C13 21.95 13.6793 23.604 15.038 24.962C16.396 26.3207 18.05 27 20 27C21.75 27 23.279 26.4333 24.587 25.3C25.8957 24.1667 26.6667 22.7333 26.9 21H28.95C28.7 23.2833 27.721 25.1873 26.013 26.712C24.3043 28.2373 22.3 29 20 29ZM22.8 24.2L19 20.4V15H21V19.6L24.2 22.8L22.8 24.2Z" fill="#222222"/>
</svg>
