<svg width="17" height="17" viewBox="0 0 17 17" fill="none" xmlns="http://www.w3.org/2000/svg">
<g clip-path="url(#clip0_388_412)">
<path d="M8.5 14.5C11.8137 14.5 14.5 11.8137 14.5 8.5C14.5 5.18629 11.8137 2.5 8.5 2.5C5.18629 2.5 2.5 5.18629 2.5 8.5C2.5 11.8137 5.18629 14.5 8.5 14.5Z" stroke="white" stroke-linecap="round" stroke-linejoin="round"/>
<path d="M10.1667 6.49992C9.82988 6.16047 9.41455 5.9393 8.9705 5.86294C8.52646 5.78658 8.07257 5.85827 7.66329 6.06942C7.25401 6.28057 6.90674 6.6222 6.66315 7.05332C6.41955 7.48443 6.28998 7.98673 6.28998 8.49992C6.28998 9.01311 6.41955 9.51541 6.66315 9.94653C6.90674 10.3776 7.25401 10.7193 7.66329 10.9304C8.07257 11.1416 8.52646 11.2133 8.9705 11.1369C9.41455 11.0605 9.82988 10.8394 10.1667 10.4999" stroke="white" stroke-linecap="round" stroke-linejoin="round"/>
</g>
<defs>
<clipPath id="clip0_388_412">
<rect width="16" height="16" fill="white" transform="translate(0.5 0.5)"/>
</clipPath>
</defs>
</svg>
